<svg xmlns="http://www.w3.org/2000/svg" xmlns:xlink="http://www.w3.org/1999/xlink" width="500" zoomAndPan="magnify" viewBox="0 0 375 374.999991" height="500" preserveAspectRatio="xMidYMid meet" version="1.0"><defs><g/></defs><rect x="-37.5" width="450" fill="#ffffff" y="-37.499999" height="449.999989" fill-opacity="1"/><rect x="-37.5" width="450" fill="#ffffff" y="-37.499999" height="449.999989" fill-opacity="1"/><g fill="#000000" fill-opacity="1"><g transform="translate(37.500002, 183.268332)"><g><path d="M 81.78125 -17.625 C 81.882812 -17.820312 82.117188 -17.90625 82.484375 -17.875 C 82.859375 -17.851562 83.046875 -17.742188 83.046875 -17.546875 C 81.804688 -15.410156 80.238281 -12.875 78.34375 -9.9375 C 76.457031 -7 74.34375 -3.910156 72 -0.671875 C 69.65625 2.566406 67.210938 5.738281 64.671875 8.84375 C 62.140625 11.957031 59.601562 14.796875 57.0625 17.359375 C 54.519531 19.929688 52.078125 22 49.734375 23.5625 C 47.398438 25.132812 45.285156 25.992188 43.390625 26.140625 C 39.859375 26.390625 36.882812 25.601562 34.46875 23.78125 C 32.050781 21.96875 30.144531 19.40625 28.75 16.09375 C 27.351562 12.78125 26.394531 8.992188 25.875 4.734375 C 25.351562 0.484375 25.226562 -3.992188 25.5 -8.703125 C 25.78125 -13.410156 26.367188 -18.03125 27.265625 -22.5625 C 23.078125 -22.5625 19.316406 -23.253906 15.984375 -24.640625 C 12.648438 -26.035156 9.785156 -27.878906 7.390625 -30.171875 C 5.003906 -32.460938 3.1875 -35.015625 1.9375 -37.828125 C 0.695312 -40.640625 0.078125 -43.515625 0.078125 -46.453125 C 0.078125 -49.390625 0.796875 -52.175781 2.234375 -54.8125 C 3.679688 -57.457031 5.898438 -59.75 8.890625 -61.6875 C 11.878906 -63.632812 15.710938 -65.03125 20.390625 -65.875 C 21.335938 -65.820312 21.847656 -65.582031 21.921875 -65.15625 C 21.992188 -64.738281 21.832031 -64.414062 21.4375 -64.1875 C 21.039062 -63.96875 20.59375 -64.082031 20.09375 -64.53125 C 15.507812 -63.632812 11.820312 -62.238281 9.03125 -60.34375 C 6.25 -58.457031 4.242188 -56.242188 3.015625 -53.703125 C 1.796875 -51.160156 1.257812 -48.492188 1.40625 -45.703125 C 1.5625 -42.921875 2.296875 -40.207031 3.609375 -37.5625 C 4.929688 -34.925781 6.75 -32.550781 9.0625 -30.4375 C 11.382812 -28.320312 14.113281 -26.648438 17.25 -25.421875 C 20.382812 -24.203125 23.796875 -23.644531 27.484375 -23.75 C 28.234375 -27.832031 29.351562 -32.101562 30.84375 -36.5625 C 32.34375 -41.019531 34.171875 -45.335938 36.328125 -49.515625 C 38.492188 -53.703125 40.972656 -57.460938 43.765625 -60.796875 C 46.554688 -64.128906 49.617188 -66.765625 52.953125 -68.703125 C 56.285156 -70.648438 59.847656 -71.597656 63.640625 -71.546875 C 66.867188 -71.492188 69.28125 -70.679688 70.875 -69.109375 C 72.46875 -67.546875 73.328125 -65.484375 73.453125 -62.921875 C 73.578125 -60.359375 73.03125 -57.507812 71.8125 -54.375 C 70.59375 -51.238281 68.800781 -48.039062 66.4375 -44.78125 C 64.070312 -41.519531 61.179688 -38.414062 57.765625 -35.46875 C 54.359375 -32.53125 50.523438 -29.96875 46.265625 -27.78125 C 42.015625 -25.59375 37.398438 -24.023438 32.421875 -23.078125 C 31.367188 -17.953125 30.707031 -12.960938 30.4375 -8.109375 C 30.164062 -3.253906 30.253906 1.25 30.703125 5.40625 C 31.148438 9.570312 31.957031 13.1875 33.125 16.25 C 34.289062 19.3125 35.820312 21.597656 37.71875 23.109375 C 39.613281 24.628906 41.851562 25.164062 44.4375 24.71875 C 46.082031 24.414062 47.9375 23.492188 50 21.953125 C 52.070312 20.410156 54.273438 18.429688 56.609375 16.015625 C 58.953125 13.597656 61.304688 10.921875 63.671875 7.984375 C 66.035156 5.046875 68.347656 2.035156 70.609375 -1.046875 C 72.878906 -4.128906 74.972656 -7.101562 76.890625 -9.96875 C 78.804688 -12.832031 80.4375 -15.382812 81.78125 -17.625 Z M 64.234375 -70.0625 C 61.546875 -70.101562 58.894531 -69.335938 56.28125 -67.765625 C 53.664062 -66.203125 51.160156 -63.976562 48.765625 -61.09375 C 46.378906 -58.207031 44.164062 -54.832031 42.125 -50.96875 C 40.082031 -47.113281 38.265625 -42.921875 36.671875 -38.390625 C 35.078125 -33.859375 33.757812 -29.175781 32.71875 -24.34375 C 37.394531 -25.289062 41.75 -26.8125 45.78125 -28.90625 C 49.8125 -31 53.457031 -33.425781 56.71875 -36.1875 C 59.976562 -38.945312 62.765625 -41.859375 65.078125 -44.921875 C 67.398438 -47.984375 69.179688 -50.984375 70.421875 -53.921875 C 71.671875 -56.859375 72.304688 -59.535156 72.328125 -61.953125 C 72.359375 -64.367188 71.722656 -66.3125 70.421875 -67.78125 C 69.128906 -69.25 67.066406 -70.007812 64.234375 -70.0625 Z M 64.234375 -70.0625 "/></g></g></g><g fill="#000000" fill-opacity="1"><g transform="translate(118.979813, 183.268332)"><g><path d="M 10.984375 -29.046875 C 13.117188 -29.046875 14.5625 -28.132812 15.3125 -26.3125 C 16.0625 -24.5 16.085938 -22.25 15.390625 -19.5625 C 15.191406 -19.5625 15.03125 -19.550781 14.90625 -19.53125 C 14.78125 -19.507812 14.617188 -19.519531 14.421875 -19.5625 C 14.816406 -20.90625 14.960938 -22.25 14.859375 -23.59375 C 14.765625 -24.945312 14.390625 -26.054688 13.734375 -26.921875 C 13.085938 -27.796875 12.144531 -28.15625 10.90625 -28 C 9.707031 -27.851562 8.597656 -26.992188 7.578125 -25.421875 C 6.554688 -23.859375 5.660156 -21.867188 4.890625 -19.453125 C 4.117188 -17.035156 3.507812 -14.46875 3.0625 -11.75 C 2.613281 -9.039062 2.390625 -6.476562 2.390625 -4.0625 C 2.390625 -1.65625 2.640625 0.328125 3.140625 1.890625 C 3.640625 3.460938 4.4375 4.328125 5.53125 4.484375 C 6.96875 4.679688 8.367188 4.316406 9.734375 3.390625 C 11.109375 2.472656 12.351562 1.21875 13.46875 -0.375 C 14.59375 -1.96875 15.53125 -3.6875 16.28125 -5.53125 C 17.03125 -7.375 17.503906 -9.113281 17.703125 -10.75 C 16.648438 -11.101562 15.675781 -11.703125 14.78125 -12.546875 C 13.882812 -13.390625 13.273438 -14.304688 12.953125 -15.296875 C 12.628906 -16.296875 12.789062 -17.171875 13.4375 -17.921875 C 14.09375 -18.671875 14.90625 -18.84375 15.875 -18.4375 C 16.84375 -18.039062 17.675781 -17.234375 18.375 -16.015625 C 19.070312 -14.796875 19.296875 -13.265625 19.046875 -11.421875 C 20.640625 -10.878906 22.359375 -10.71875 24.203125 -10.9375 C 26.046875 -11.164062 27.882812 -11.8125 29.71875 -12.875 C 31.5625 -13.945312 33.179688 -15.484375 34.578125 -17.484375 C 34.722656 -17.679688 35.007812 -17.789062 35.4375 -17.8125 C 35.863281 -17.832031 36.078125 -17.742188 36.078125 -17.546875 C 34.328125 -15.109375 32.441406 -13.265625 30.421875 -12.015625 C 28.410156 -10.773438 26.410156 -10.015625 24.421875 -9.734375 C 22.429688 -9.460938 20.613281 -9.601562 18.96875 -10.15625 C 18.71875 -8.363281 18.179688 -6.507812 17.359375 -4.59375 C 16.535156 -2.675781 15.515625 -0.921875 14.296875 0.671875 C 13.078125 2.265625 11.707031 3.507812 10.1875 4.40625 C 8.675781 5.300781 7.097656 5.648438 5.453125 5.453125 C 3.609375 5.203125 2.125 4.40625 1 3.0625 C -0.113281 1.71875 -0.90625 0 -1.375 -2.09375 C -1.851562 -4.1875 -2.03125 -6.425781 -1.90625 -8.8125 C -1.78125 -11.195312 -1.394531 -13.582031 -0.75 -15.96875 C -0.101562 -18.363281 0.773438 -20.546875 1.890625 -22.515625 C 3.015625 -24.484375 4.335938 -26.0625 5.859375 -27.25 C 7.378906 -28.445312 9.085938 -29.046875 10.984375 -29.046875 Z M 14.1875 -17.03125 C 13.9375 -16.53125 14 -15.90625 14.375 -15.15625 C 14.75 -14.414062 15.269531 -13.742188 15.9375 -13.140625 C 16.613281 -12.546875 17.25 -12.148438 17.84375 -11.953125 C 18 -13.390625 17.8125 -14.582031 17.28125 -15.53125 C 16.757812 -16.476562 16.1875 -17.085938 15.5625 -17.359375 C 14.945312 -17.640625 14.488281 -17.53125 14.1875 -17.03125 Z M 14.1875 -17.03125 "/></g></g></g><g fill="#000000" fill-opacity="1"><g transform="translate(153.334265, 183.268332)"><g><path d="M 4.921875 3.4375 C 6.117188 3.582031 7.238281 2.957031 8.28125 1.5625 C 9.332031 0.175781 10.316406 -1.660156 11.234375 -3.953125 C 12.160156 -6.242188 13.007812 -8.679688 13.78125 -11.265625 C 14.550781 -13.859375 15.269531 -16.3125 15.9375 -18.625 C 16.613281 -20.945312 17.203125 -22.78125 17.703125 -24.125 C 18.046875 -25.070312 18.613281 -25.679688 19.40625 -25.953125 C 20.207031 -26.222656 20.929688 -26.171875 21.578125 -25.796875 C 22.234375 -25.429688 22.484375 -24.695312 22.328125 -23.59375 C 22.035156 -21.3125 21.703125 -18.75 21.328125 -15.90625 C 20.953125 -13.070312 20.640625 -10.234375 20.390625 -7.390625 C 20.140625 -4.554688 20 -1.957031 19.96875 0.40625 C 19.945312 2.769531 20.125 4.625 20.5 5.96875 C 20.875 7.3125 21.535156 7.882812 22.484375 7.6875 C 24.328125 7.289062 26.101562 5.820312 27.8125 3.28125 C 29.53125 0.75 31.238281 -2.707031 32.9375 -7.09375 C 30.5 -8.4375 28.679688 -10.09375 27.484375 -12.0625 C 26.285156 -14.03125 25.585938 -16.046875 25.390625 -18.109375 C 25.191406 -20.179688 25.425781 -22.070312 26.09375 -23.78125 C 26.769531 -25.5 27.765625 -26.832031 29.078125 -27.78125 C 30.398438 -28.726562 31.984375 -29.003906 33.828125 -28.609375 C 35.523438 -28.253906 36.644531 -27.046875 37.1875 -24.984375 C 37.738281 -22.921875 37.800781 -20.359375 37.375 -17.296875 C 36.957031 -14.234375 36.078125 -11.03125 34.734375 -7.6875 C 36.171875 -7.289062 37.722656 -7.300781 39.390625 -7.71875 C 41.066406 -8.144531 42.710938 -8.867188 44.328125 -9.890625 C 45.941406 -10.910156 47.457031 -12.082031 48.875 -13.40625 C 50.300781 -14.726562 51.507812 -16.0625 52.5 -17.40625 C 52.65625 -17.601562 52.941406 -17.710938 53.359375 -17.734375 C 53.785156 -17.765625 54 -17.679688 54 -17.484375 C 52.101562 -14.992188 50.035156 -12.835938 47.796875 -11.015625 C 45.554688 -9.203125 43.28125 -7.882812 40.96875 -7.0625 C 38.65625 -6.238281 36.398438 -6.078125 34.203125 -6.578125 C 33.054688 -4.085938 31.898438 -1.722656 30.734375 0.515625 C 29.566406 2.765625 28.320312 4.632812 27 6.125 C 25.675781 7.613281 24.171875 8.457031 22.484375 8.65625 C 20.140625 8.90625 18.394531 8.117188 17.25 6.296875 C 16.101562 4.484375 15.46875 1.875 15.34375 -1.53125 C 15.21875 -4.9375 15.476562 -8.882812 16.125 -13.375 C 14.78125 -9.488281 13.597656 -6.375 12.578125 -4.03125 C 11.554688 -1.6875 10.609375 0.09375 9.734375 1.3125 C 8.867188 2.53125 8.078125 3.363281 7.359375 3.8125 C 6.640625 4.257812 5.90625 4.53125 5.15625 4.625 C 3.507812 4.820312 2.238281 4.296875 1.34375 3.046875 C 0.445312 1.804688 -0.171875 0.171875 -0.515625 -1.859375 C -0.867188 -3.898438 -1.03125 -6.09375 -1 -8.4375 C -0.976562 -10.78125 -0.84375 -12.945312 -0.59375 -14.9375 C -0.34375 -16.925781 -0.09375 -18.46875 0.15625 -19.5625 C 0.5 -21.007812 0.96875 -22.019531 1.5625 -22.59375 C 2.164062 -23.164062 2.773438 -23.4375 3.390625 -23.40625 C 4.015625 -23.382812 4.523438 -23.175781 4.921875 -22.78125 C 5.328125 -22.382812 5.476562 -21.960938 5.375 -21.515625 C 5.175781 -20.265625 4.898438 -18.617188 4.546875 -16.578125 C 4.203125 -14.535156 3.867188 -12.394531 3.546875 -10.15625 C 3.222656 -7.914062 3.007812 -5.785156 2.90625 -3.765625 C 2.8125 -1.753906 2.910156 -0.078125 3.203125 1.265625 C 3.503906 2.609375 4.078125 3.332031 4.921875 3.4375 Z M 33.453125 -8.21875 C 34.847656 -11.445312 35.71875 -14.492188 36.0625 -17.359375 C 36.414062 -20.222656 36.351562 -22.578125 35.875 -24.421875 C 35.40625 -26.265625 34.625 -27.285156 33.53125 -27.484375 C 32.039062 -27.785156 30.742188 -27.5 29.640625 -26.625 C 28.546875 -25.75 27.722656 -24.539062 27.171875 -23 C 26.628906 -21.457031 26.445312 -19.765625 26.625 -17.921875 C 26.800781 -16.078125 27.4375 -14.296875 28.53125 -12.578125 C 29.625 -10.867188 31.265625 -9.414062 33.453125 -8.21875 Z M 33.453125 -8.21875 "/></g></g></g><g fill="#000000" fill-opacity="1"><g transform="translate(205.612784, 183.268332)"><g><path d="M 9.03125 4.484375 C 10.332031 3.640625 11.703125 2.46875 13.140625 0.96875 C 14.585938 -0.519531 16.03125 -2.160156 17.46875 -3.953125 C 18.914062 -5.742188 20.3125 -7.523438 21.65625 -9.296875 C 23 -11.066406 24.191406 -12.695312 25.234375 -14.1875 C 26.285156 -15.6875 27.132812 -16.832031 27.78125 -17.625 C 27.925781 -17.769531 28.171875 -17.84375 28.515625 -17.84375 C 28.867188 -17.84375 29.046875 -17.742188 29.046875 -17.546875 C 28.003906 -16.203125 26.773438 -14.519531 25.359375 -12.5 C 23.941406 -10.488281 22.394531 -8.382812 20.71875 -6.1875 C 19.050781 -4 17.332031 -1.925781 15.5625 0.03125 C 13.800781 2 12.070312 3.609375 10.375 4.859375 C 8.039062 6.648438 5.765625 7.242188 3.546875 6.640625 C 1.328125 6.046875 -0.148438 4.179688 -0.890625 1.046875 C -1.242188 -0.296875 -1.429688 -2.050781 -1.453125 -4.21875 C -1.484375 -6.382812 -1.382812 -8.625 -1.15625 -10.9375 C -0.9375 -13.257812 -0.675781 -15.390625 -0.375 -17.328125 C -0.0703125 -19.265625 0.222656 -20.707031 0.515625 -21.65625 C 1.066406 -23 1.816406 -23.984375 2.765625 -24.609375 C 3.710938 -25.234375 4.546875 -25.457031 5.265625 -25.28125 C 5.984375 -25.101562 6.242188 -24.492188 6.046875 -23.453125 C 5.742188 -21.554688 5.378906 -19.425781 4.953125 -17.0625 C 4.535156 -14.695312 4.164062 -12.28125 3.84375 -9.8125 C 3.519531 -7.351562 3.320312 -5.050781 3.25 -2.90625 C 3.175781 -0.769531 3.285156 1.039062 3.578125 2.53125 C 3.878906 4.03125 4.460938 4.988281 5.328125 5.40625 C 6.203125 5.832031 7.4375 5.523438 9.03125 4.484375 Z M 4.625 -30.09375 C 3.976562 -30.09375 3.53125 -30.414062 3.28125 -31.0625 C 3.03125 -31.71875 2.976562 -32.441406 3.125 -33.234375 C 3.28125 -34.035156 3.59375 -34.742188 4.0625 -35.359375 C 4.539062 -35.984375 5.15625 -36.25 5.90625 -36.15625 C 6.394531 -36 6.703125 -35.609375 6.828125 -34.984375 C 6.953125 -34.367188 6.941406 -33.671875 6.796875 -32.890625 C 6.648438 -32.117188 6.390625 -31.457031 6.015625 -30.90625 C 5.640625 -30.363281 5.175781 -30.09375 4.625 -30.09375 Z M 4.625 -30.09375 "/></g></g></g><g fill="#000000" fill-opacity="1"><g transform="translate(233.320393, 183.268332)"><g><path d="M 9.265625 1.859375 C 10.503906 1.515625 11.820312 0.757812 13.21875 -0.40625 C 14.613281 -1.582031 16.019531 -2.96875 17.4375 -4.5625 C 18.851562 -6.15625 20.195312 -7.796875 21.46875 -9.484375 C 22.738281 -11.179688 23.894531 -12.765625 24.9375 -14.234375 C 25.988281 -15.703125 26.835938 -16.832031 27.484375 -17.625 C 27.628906 -17.769531 27.875 -17.84375 28.21875 -17.84375 C 28.570312 -17.84375 28.75 -17.742188 28.75 -17.546875 C 27.707031 -16.203125 26.4375 -14.492188 24.9375 -12.421875 C 23.445312 -10.359375 21.816406 -8.242188 20.046875 -6.078125 C 18.285156 -3.921875 16.492188 -2.003906 14.671875 -0.328125 C 12.859375 1.335938 11.101562 2.414062 9.40625 2.90625 C 7.414062 3.0625 5.710938 2.613281 4.296875 1.5625 C 2.878906 0.519531 1.757812 -0.929688 0.9375 -2.796875 C 0.113281 -4.660156 -0.40625 -6.75 -0.625 -9.0625 C -0.851562 -11.382812 -0.769531 -13.753906 -0.375 -16.171875 C 0.0195312 -18.585938 0.71875 -20.878906 1.71875 -23.046875 C 2.71875 -25.210938 4.035156 -27.039062 5.671875 -28.53125 C 7.210938 -29.976562 8.691406 -30.835938 10.109375 -31.109375 C 11.535156 -31.378906 12.742188 -31.253906 13.734375 -30.734375 C 14.734375 -30.210938 15.394531 -29.398438 15.71875 -28.296875 C 16.039062 -27.203125 15.90625 -25.992188 15.3125 -24.671875 C 14.71875 -23.359375 13.535156 -22.039062 11.765625 -20.71875 C 9.992188 -19.40625 7.488281 -18.273438 4.25 -17.328125 C 3.40625 -13.046875 3.117188 -9.394531 3.390625 -6.375 C 3.671875 -3.363281 4.34375 -1.140625 5.40625 0.296875 C 6.476562 1.742188 7.765625 2.265625 9.265625 1.859375 Z M 4.625 -18.59375 C 7.8125 -19.59375 10.1875 -20.710938 11.75 -21.953125 C 13.320312 -23.203125 14.296875 -24.421875 14.671875 -25.609375 C 15.046875 -26.804688 15.035156 -27.816406 14.640625 -28.640625 C 14.242188 -29.460938 13.671875 -29.945312 12.921875 -30.09375 C 11.878906 -30.195312 10.90625 -29.863281 10 -29.09375 C 9.101562 -28.320312 8.316406 -27.320312 7.640625 -26.09375 C 6.972656 -24.875 6.378906 -23.59375 5.859375 -22.25 C 5.335938 -20.90625 4.925781 -19.6875 4.625 -18.59375 Z M 4.625 -18.59375 "/></g></g></g><g fill="#000000" fill-opacity="1"><g transform="translate(260.579897, 183.268332)"><g><path d="M 1.265625 -53.84375 C 0.921875 -54.09375 0.832031 -54.46875 1 -54.96875 C 1.175781 -55.46875 1.613281 -55.71875 2.3125 -55.71875 C 2.757812 -55.664062 3.03125 -55.441406 3.125 -55.046875 C 3.226562 -54.648438 3.234375 -54.203125 3.140625 -53.703125 C 2.941406 -53.054688 2.554688 -52.546875 1.984375 -52.171875 C 1.410156 -51.796875 1.023438 -51.632812 0.828125 -51.6875 C 0.773438 -51.6875 0.722656 -51.734375 0.671875 -51.828125 C 0.617188 -51.929688 0.742188 -52.15625 1.046875 -52.5 C 1.296875 -52.800781 1.429688 -53.085938 1.453125 -53.359375 C 1.484375 -53.640625 1.421875 -53.800781 1.265625 -53.84375 Z M 1.265625 -53.84375 "/></g></g></g><g fill="#000000" fill-opacity="1"><g transform="translate(266.554583, 183.268332)"><g><path d="M 6.34375 18.828125 C 4.300781 19.273438 2.546875 19.0625 1.078125 18.1875 C -0.390625 17.3125 -1.429688 16.050781 -2.046875 14.40625 C -2.671875 12.769531 -2.757812 10.96875 -2.3125 9 C -1.863281 7.03125 -0.742188 5.148438 1.046875 3.359375 C 2.835938 1.566406 5.398438 0.0976562 8.734375 -1.046875 C 8.191406 -2.085938 7.457031 -3.378906 6.53125 -4.921875 C 5.613281 -6.472656 4.664062 -8.128906 3.6875 -9.890625 C 2.71875 -11.660156 1.835938 -13.34375 1.046875 -14.9375 C -0.441406 -17.976562 -1 -20.691406 -0.625 -23.078125 C -0.257812 -25.460938 0.789062 -27.398438 2.53125 -28.890625 C 4.28125 -30.390625 6.398438 -31.265625 8.890625 -31.515625 C 10.878906 -31.765625 12.53125 -31.34375 13.84375 -30.25 C 15.164062 -29.15625 15.953125 -27.722656 16.203125 -25.953125 C 16.453125 -24.179688 15.929688 -22.351562 14.640625 -20.46875 L 13.21875 -20.46875 C 14.257812 -21.8125 14.832031 -23.128906 14.9375 -24.421875 C 15.039062 -25.710938 14.816406 -26.859375 14.265625 -27.859375 C 13.710938 -28.859375 12.960938 -29.601562 12.015625 -30.09375 C 11.078125 -30.59375 10.0625 -30.691406 8.96875 -30.390625 C 7.375 -29.992188 6.015625 -29.222656 4.890625 -28.078125 C 3.773438 -26.929688 3.101562 -25.5 2.875 -23.78125 C 2.65625 -22.070312 3.113281 -20.144531 4.25 -18 C 5.550781 -15.5625 6.859375 -13.257812 8.171875 -11.09375 C 9.492188 -8.925781 10.925781 -6.273438 12.46875 -3.140625 C 14.613281 -3.984375 16.867188 -5.0625 19.234375 -6.375 C 21.597656 -7.695312 23.882812 -9.289062 26.09375 -11.15625 C 28.3125 -13.03125 30.242188 -15.160156 31.890625 -17.546875 C 32.335938 -17.953125 32.734375 -18.101562 33.078125 -18 C 33.429688 -17.894531 33.507812 -17.722656 33.3125 -17.484375 C 31.164062 -14.492188 28.859375 -12 26.390625 -10 C 23.929688 -8.007812 21.53125 -6.40625 19.1875 -5.1875 C 16.851562 -3.96875 14.765625 -2.984375 12.921875 -2.234375 C 13.867188 -0.0976562 14.503906 2.085938 14.828125 4.328125 C 15.148438 6.566406 15.097656 8.695312 14.671875 10.71875 C 14.253906 12.738281 13.375 14.457031 12.03125 15.875 C 10.6875 17.289062 8.789062 18.273438 6.34375 18.828125 Z M 6.875 17.625 C 8.113281 17.175781 9.109375 16.066406 9.859375 14.296875 C 10.609375 12.535156 10.957031 10.367188 10.90625 7.796875 C 10.851562 5.234375 10.253906 2.582031 9.109375 -0.15625 C 5.921875 0.988281 3.503906 2.429688 1.859375 4.171875 C 0.222656 5.921875 -0.789062 7.703125 -1.1875 9.515625 C -1.59375 11.335938 -1.484375 12.96875 -0.859375 14.40625 C -0.234375 15.851562 0.75 16.910156 2.09375 17.578125 C 3.4375 18.253906 5.03125 18.269531 6.875 17.625 Z M 6.875 17.625 "/></g></g></g><g fill="#000000" fill-opacity="1"><g transform="translate(63.83284, 224.18096)"><g><path d="M 9.15625 -14.1875 C 10.09375 -14.1875 10.878906 -14.117188 11.515625 -13.984375 C 12.160156 -13.847656 12.800781 -13.613281 13.4375 -13.28125 C 13.539062 -13.226562 13.597656 -13.175781 13.609375 -13.125 C 13.628906 -13.082031 13.65625 -12.972656 13.6875 -12.796875 L 13.953125 -10.140625 C 13.953125 -10.097656 13.910156 -10.070312 13.828125 -10.0625 C 13.753906 -10.0625 13.707031 -10.082031 13.6875 -10.125 C 13.007812 -12.601562 11.476562 -13.84375 9.09375 -13.84375 C 7.84375 -13.84375 6.742188 -13.566406 5.796875 -13.015625 C 4.847656 -12.472656 4.113281 -11.691406 3.59375 -10.671875 C 3.070312 -9.648438 2.8125 -8.460938 2.8125 -7.109375 C 2.8125 -5.816406 3.097656 -4.628906 3.671875 -3.546875 C 4.242188 -2.472656 5.015625 -1.625 5.984375 -1 C 6.960938 -0.375 8.019531 -0.0625 9.15625 -0.0625 C 10.382812 -0.0625 11.375 -0.359375 12.125 -0.953125 C 12.882812 -1.546875 13.46875 -2.453125 13.875 -3.671875 C 13.875 -3.703125 13.910156 -3.71875 13.984375 -3.71875 C 14.085938 -3.71875 14.140625 -3.695312 14.140625 -3.65625 L 13.90625 -1.203125 C 13.894531 -1.023438 13.875 -0.910156 13.84375 -0.859375 C 13.8125 -0.816406 13.753906 -0.769531 13.671875 -0.71875 C 12.898438 -0.34375 12.175781 -0.0820312 11.5 0.0625 C 10.820312 0.21875 10.039062 0.296875 9.15625 0.296875 C 7.601562 0.296875 6.210938 -0.0078125 4.984375 -0.625 C 3.753906 -1.25 2.796875 -2.117188 2.109375 -3.234375 C 1.429688 -4.347656 1.09375 -5.625 1.09375 -7.0625 C 1.09375 -8.457031 1.441406 -9.691406 2.140625 -10.765625 C 2.835938 -11.847656 3.800781 -12.6875 5.03125 -13.28125 C 6.257812 -13.882812 7.632812 -14.1875 9.15625 -14.1875 Z M 9.15625 -14.1875 "/></g></g></g><g fill="#000000" fill-opacity="1"><g transform="translate(82.066741, 224.18096)"><g><path d="M 4.125 -1.890625 C 4.125 -1.460938 4.164062 -1.148438 4.25 -0.953125 C 4.34375 -0.765625 4.507812 -0.632812 4.75 -0.5625 C 4.988281 -0.5 5.375 -0.46875 5.90625 -0.46875 L 8.34375 -0.46875 C 9.1875 -0.46875 9.859375 -0.726562 10.359375 -1.25 C 10.867188 -1.769531 11.207031 -2.488281 11.375 -3.40625 C 11.375 -3.457031 11.410156 -3.476562 11.484375 -3.46875 C 11.566406 -3.457031 11.609375 -3.429688 11.609375 -3.390625 C 11.484375 -2.148438 11.421875 -1.128906 11.421875 -0.328125 C 11.421875 -0.210938 11.394531 -0.128906 11.34375 -0.078125 C 11.300781 -0.0234375 11.210938 0 11.078125 0 L 0.78125 0 C 0.75 0 0.734375 -0.0390625 0.734375 -0.125 C 0.734375 -0.21875 0.75 -0.265625 0.78125 -0.265625 C 1.34375 -0.265625 1.753906 -0.300781 2.015625 -0.375 C 2.273438 -0.445312 2.445312 -0.59375 2.53125 -0.8125 C 2.625 -1.03125 2.671875 -1.363281 2.671875 -1.8125 L 2.671875 -12.125 C 2.671875 -12.570312 2.625 -12.898438 2.53125 -13.109375 C 2.445312 -13.316406 2.273438 -13.460938 2.015625 -13.546875 C 1.753906 -13.628906 1.34375 -13.671875 0.78125 -13.671875 C 0.75 -13.671875 0.734375 -13.710938 0.734375 -13.796875 C 0.734375 -13.890625 0.75 -13.9375 0.78125 -13.9375 L 1.875 -13.90625 C 2.5 -13.882812 3.003906 -13.875 3.390625 -13.875 C 3.804688 -13.875 4.328125 -13.882812 4.953125 -13.90625 L 6.015625 -13.9375 C 6.066406 -13.9375 6.09375 -13.890625 6.09375 -13.796875 C 6.09375 -13.710938 6.066406 -13.671875 6.015625 -13.671875 C 5.460938 -13.671875 5.054688 -13.628906 4.796875 -13.546875 C 4.546875 -13.460938 4.367188 -13.3125 4.265625 -13.09375 C 4.171875 -12.882812 4.125 -12.554688 4.125 -12.109375 Z M 4.125 -1.890625 "/></g></g></g><g fill="#000000" fill-opacity="1"><g transform="translate(96.890268, 224.18096)"><g><path d="M 10.59375 -3.328125 C 10.59375 -3.347656 10.625 -3.359375 10.6875 -3.359375 C 10.726562 -3.359375 10.765625 -3.351562 10.796875 -3.34375 C 10.835938 -3.332031 10.859375 -3.3125 10.859375 -3.28125 C 10.722656 -2.34375 10.65625 -1.359375 10.65625 -0.328125 C 10.65625 -0.210938 10.628906 -0.128906 10.578125 -0.078125 C 10.523438 -0.0234375 10.429688 0 10.296875 0 L 0.953125 0 C 0.929688 0 0.921875 -0.0390625 0.921875 -0.125 C 0.921875 -0.21875 0.929688 -0.265625 0.953125 -0.265625 C 1.523438 -0.265625 1.941406 -0.300781 2.203125 -0.375 C 2.460938 -0.445312 2.640625 -0.59375 2.734375 -0.8125 C 2.828125 -1.03125 2.875 -1.363281 2.875 -1.8125 L 2.875 -12.125 C 2.875 -12.570312 2.828125 -12.898438 2.734375 -13.109375 C 2.640625 -13.316406 2.460938 -13.460938 2.203125 -13.546875 C 1.941406 -13.628906 1.523438 -13.671875 0.953125 -13.671875 C 0.929688 -13.671875 0.921875 -13.710938 0.921875 -13.796875 C 0.921875 -13.890625 0.929688 -13.9375 0.953125 -13.9375 L 9.921875 -13.9375 C 10.054688 -13.9375 10.125 -13.867188 10.125 -13.734375 L 10.171875 -11 C 10.171875 -10.945312 10.128906 -10.914062 10.046875 -10.90625 C 9.972656 -10.90625 9.929688 -10.925781 9.921875 -10.96875 C 9.878906 -11.757812 9.640625 -12.375 9.203125 -12.8125 C 8.773438 -13.25 8.203125 -13.46875 7.484375 -13.46875 L 6.125 -13.46875 C 5.601562 -13.46875 5.21875 -13.425781 4.96875 -13.34375 C 4.726562 -13.257812 4.5625 -13.117188 4.46875 -12.921875 C 4.375 -12.722656 4.328125 -12.421875 4.328125 -12.015625 L 4.328125 -7.484375 L 7.046875 -7.484375 C 7.753906 -7.484375 8.257812 -7.601562 8.5625 -7.84375 C 8.875 -8.082031 9.03125 -8.484375 9.03125 -9.046875 C 9.03125 -9.078125 9.070312 -9.09375 9.15625 -9.09375 C 9.25 -9.09375 9.296875 -9.078125 9.296875 -9.046875 L 9.28125 -7.25 C 9.28125 -6.8125 9.285156 -6.484375 9.296875 -6.265625 L 9.3125 -5.1875 C 9.3125 -5.164062 9.265625 -5.15625 9.171875 -5.15625 C 9.085938 -5.15625 9.046875 -5.164062 9.046875 -5.1875 C 9.046875 -5.84375 8.882812 -6.3125 8.5625 -6.59375 C 8.25 -6.882812 7.722656 -7.03125 6.984375 -7.03125 L 4.328125 -7.03125 L 4.328125 -1.890625 C 4.328125 -1.472656 4.367188 -1.164062 4.453125 -0.96875 C 4.546875 -0.78125 4.710938 -0.648438 4.953125 -0.578125 C 5.191406 -0.503906 5.5625 -0.46875 6.0625 -0.46875 L 7.84375 -0.46875 C 8.5625 -0.46875 9.15625 -0.71875 9.625 -1.21875 C 10.101562 -1.726562 10.425781 -2.429688 10.59375 -3.328125 Z M 10.59375 -3.328125 "/></g></g></g><g fill="#000000" fill-opacity="1"><g transform="translate(111.802961, 224.18096)"><g><path d="M 15.578125 -0.265625 C 15.640625 -0.265625 15.671875 -0.21875 15.671875 -0.125 C 15.671875 -0.0390625 15.640625 0 15.578125 0 C 15.296875 0 14.859375 -0.015625 14.265625 -0.046875 C 13.671875 -0.078125 13.242188 -0.09375 12.984375 -0.09375 C 12.648438 -0.09375 12.234375 -0.078125 11.734375 -0.046875 C 11.253906 -0.015625 10.890625 0 10.640625 0 C 10.578125 0 10.546875 -0.0390625 10.546875 -0.125 C 10.546875 -0.21875 10.578125 -0.265625 10.640625 -0.265625 C 11.179688 -0.265625 11.578125 -0.316406 11.828125 -0.421875 C 12.085938 -0.523438 12.21875 -0.703125 12.21875 -0.953125 C 12.21875 -1.160156 12.117188 -1.484375 11.921875 -1.921875 L 9.9375 -6.125 L 4.640625 -6.125 L 3.234375 -2.828125 C 3.023438 -2.328125 2.921875 -1.921875 2.921875 -1.609375 C 2.921875 -1.148438 3.101562 -0.8125 3.46875 -0.59375 C 3.832031 -0.375 4.378906 -0.265625 5.109375 -0.265625 C 5.179688 -0.265625 5.21875 -0.21875 5.21875 -0.125 C 5.21875 -0.0390625 5.179688 0 5.109375 0 C 4.835938 0 4.453125 -0.015625 3.953125 -0.046875 C 3.378906 -0.078125 2.882812 -0.09375 2.46875 -0.09375 C 2.082031 -0.09375 1.640625 -0.078125 1.140625 -0.046875 C 0.691406 -0.015625 0.316406 0 0.015625 0 C -0.0546875 0 -0.09375 -0.0390625 -0.09375 -0.125 C -0.09375 -0.21875 -0.0546875 -0.265625 0.015625 -0.265625 C 0.429688 -0.265625 0.785156 -0.34375 1.078125 -0.5 C 1.367188 -0.65625 1.644531 -0.929688 1.90625 -1.328125 C 2.164062 -1.722656 2.453125 -2.289062 2.765625 -3.03125 L 7.46875 -14.140625 C 7.5 -14.179688 7.550781 -14.203125 7.625 -14.203125 C 7.695312 -14.203125 7.742188 -14.179688 7.765625 -14.140625 L 13.015625 -3.046875 C 13.523438 -1.953125 13.957031 -1.210938 14.3125 -0.828125 C 14.664062 -0.453125 15.085938 -0.265625 15.578125 -0.265625 Z M 4.8125 -6.578125 L 9.75 -6.578125 L 7.140625 -12.078125 Z M 4.8125 -6.578125 "/></g></g></g><g fill="#000000" fill-opacity="1"><g transform="translate(130.393494, 224.18096)"><g><path d="M 15.703125 -13.9375 C 15.742188 -13.9375 15.765625 -13.890625 15.765625 -13.796875 C 15.765625 -13.710938 15.742188 -13.671875 15.703125 -13.671875 C 15.078125 -13.671875 14.617188 -13.5 14.328125 -13.15625 C 14.046875 -12.8125 13.90625 -12.253906 13.90625 -11.484375 L 13.90625 0.265625 C 13.90625 0.296875 13.867188 0.316406 13.796875 0.328125 C 13.722656 0.347656 13.671875 0.34375 13.640625 0.3125 L 3.390625 -12.109375 L 3.1875 -12.328125 L 3.1875 -2.4375 C 3.1875 -1.65625 3.320312 -1.097656 3.59375 -0.765625 C 3.875 -0.429688 4.316406 -0.265625 4.921875 -0.265625 C 4.972656 -0.265625 5 -0.21875 5 -0.125 C 5 -0.0390625 4.972656 0 4.921875 0 C 4.554688 0 4.273438 -0.00390625 4.078125 -0.015625 L 2.96875 -0.046875 L 1.828125 -0.015625 C 1.617188 -0.00390625 1.316406 0 0.921875 0 C 0.890625 0 0.875 -0.0390625 0.875 -0.125 C 0.875 -0.21875 0.890625 -0.265625 0.921875 -0.265625 C 1.554688 -0.265625 2.003906 -0.429688 2.265625 -0.765625 C 2.535156 -1.097656 2.671875 -1.65625 2.671875 -2.4375 L 2.671875 -12.859375 C 2.097656 -13.398438 1.515625 -13.671875 0.921875 -13.671875 C 0.867188 -13.671875 0.84375 -13.710938 0.84375 -13.796875 C 0.84375 -13.890625 0.867188 -13.9375 0.921875 -13.9375 L 1.734375 -13.90625 C 1.910156 -13.894531 2.15625 -13.890625 2.46875 -13.890625 C 2.800781 -13.890625 3.070312 -13.894531 3.28125 -13.90625 C 3.488281 -13.925781 3.648438 -13.9375 3.765625 -13.9375 C 3.890625 -13.9375 3.976562 -13.910156 4.03125 -13.859375 C 4.082031 -13.804688 4.164062 -13.691406 4.28125 -13.515625 C 4.457031 -13.242188 4.632812 -13 4.8125 -12.78125 L 13.40625 -2.234375 L 13.40625 -11.484375 C 13.40625 -12.253906 13.273438 -12.8125 13.015625 -13.15625 C 12.753906 -13.5 12.316406 -13.671875 11.703125 -13.671875 C 11.671875 -13.671875 11.65625 -13.710938 11.65625 -13.796875 C 11.65625 -13.890625 11.671875 -13.9375 11.703125 -13.9375 L 12.578125 -13.90625 C 13.023438 -13.882812 13.390625 -13.875 13.671875 -13.875 C 13.929688 -13.875 14.300781 -13.882812 14.78125 -13.90625 Z M 15.703125 -13.9375 "/></g></g></g><g fill="#000000" fill-opacity="1"><g transform="translate(149.541281, 224.18096)"><g><path d="M 4.4375 -1.8125 C 4.4375 -1.363281 4.476562 -1.03125 4.5625 -0.8125 C 4.65625 -0.59375 4.832031 -0.445312 5.09375 -0.375 C 5.351562 -0.300781 5.765625 -0.265625 6.328125 -0.265625 C 6.378906 -0.265625 6.40625 -0.21875 6.40625 -0.125 C 6.40625 -0.0390625 6.378906 0 6.328125 0 C 5.878906 0 5.523438 -0.00390625 5.265625 -0.015625 L 3.671875 -0.046875 L 2.140625 -0.015625 C 1.867188 -0.00390625 1.503906 0 1.046875 0 C 1.003906 0 0.984375 -0.0390625 0.984375 -0.125 C 0.984375 -0.21875 1.003906 -0.265625 1.046875 -0.265625 C 1.609375 -0.265625 2.019531 -0.300781 2.28125 -0.375 C 2.539062 -0.445312 2.71875 -0.59375 2.8125 -0.8125 C 2.914062 -1.03125 2.96875 -1.363281 2.96875 -1.8125 L 2.96875 -12.125 C 2.96875 -12.570312 2.914062 -12.898438 2.8125 -13.109375 C 2.71875 -13.316406 2.539062 -13.460938 2.28125 -13.546875 C 2.019531 -13.628906 1.609375 -13.671875 1.046875 -13.671875 C 1.003906 -13.671875 0.984375 -13.710938 0.984375 -13.796875 C 0.984375 -13.890625 1.003906 -13.9375 1.046875 -13.9375 L 2.140625 -13.90625 C 2.765625 -13.882812 3.273438 -13.875 3.671875 -13.875 C 4.117188 -13.875 4.65625 -13.882812 5.28125 -13.90625 L 6.328125 -13.9375 C 6.378906 -13.9375 6.40625 -13.890625 6.40625 -13.796875 C 6.40625 -13.710938 6.378906 -13.671875 6.328125 -13.671875 C 5.773438 -13.671875 5.367188 -13.625 5.109375 -13.53125 C 4.859375 -13.445312 4.679688 -13.296875 4.578125 -13.078125 C 4.484375 -12.859375 4.4375 -12.523438 4.4375 -12.078125 Z M 4.4375 -1.8125 "/></g></g></g><g fill="#000000" fill-opacity="1"><g transform="translate(159.884519, 224.18096)"><g><path d="M 15.703125 -13.9375 C 15.742188 -13.9375 15.765625 -13.890625 15.765625 -13.796875 C 15.765625 -13.710938 15.742188 -13.671875 15.703125 -13.671875 C 15.078125 -13.671875 14.617188 -13.5 14.328125 -13.15625 C 14.046875 -12.8125 13.90625 -12.253906 13.90625 -11.484375 L 13.90625 0.265625 C 13.90625 0.296875 13.867188 0.316406 13.796875 0.328125 C 13.722656 0.347656 13.671875 0.34375 13.640625 0.3125 L 3.390625 -12.109375 L 3.1875 -12.328125 L 3.1875 -2.4375 C 3.1875 -1.65625 3.320312 -1.097656 3.59375 -0.765625 C 3.875 -0.429688 4.316406 -0.265625 4.921875 -0.265625 C 4.972656 -0.265625 5 -0.21875 5 -0.125 C 5 -0.0390625 4.972656 0 4.921875 0 C 4.554688 0 4.273438 -0.00390625 4.078125 -0.015625 L 2.96875 -0.046875 L 1.828125 -0.015625 C 1.617188 -0.00390625 1.316406 0 0.921875 0 C 0.890625 0 0.875 -0.0390625 0.875 -0.125 C 0.875 -0.21875 0.890625 -0.265625 0.921875 -0.265625 C 1.554688 -0.265625 2.003906 -0.429688 2.265625 -0.765625 C 2.535156 -1.097656 2.671875 -1.65625 2.671875 -2.4375 L 2.671875 -12.859375 C 2.097656 -13.398438 1.515625 -13.671875 0.921875 -13.671875 C 0.867188 -13.671875 0.84375 -13.710938 0.84375 -13.796875 C 0.84375 -13.890625 0.867188 -13.9375 0.921875 -13.9375 L 1.734375 -13.90625 C 1.910156 -13.894531 2.15625 -13.890625 2.46875 -13.890625 C 2.800781 -13.890625 3.070312 -13.894531 3.28125 -13.90625 C 3.488281 -13.925781 3.648438 -13.9375 3.765625 -13.9375 C 3.890625 -13.9375 3.976562 -13.910156 4.03125 -13.859375 C 4.082031 -13.804688 4.164062 -13.691406 4.28125 -13.515625 C 4.457031 -13.242188 4.632812 -13 4.8125 -12.78125 L 13.40625 -2.234375 L 13.40625 -11.484375 C 13.40625 -12.253906 13.273438 -12.8125 13.015625 -13.15625 C 12.753906 -13.5 12.316406 -13.671875 11.703125 -13.671875 C 11.671875 -13.671875 11.65625 -13.710938 11.65625 -13.796875 C 11.65625 -13.890625 11.671875 -13.9375 11.703125 -13.9375 L 12.578125 -13.90625 C 13.023438 -13.882812 13.390625 -13.875 13.671875 -13.875 C 13.929688 -13.875 14.300781 -13.882812 14.78125 -13.90625 Z M 15.703125 -13.9375 "/></g></g></g><g fill="#000000" fill-opacity="1"><g transform="translate(179.032313, 224.18096)"><g><path d="M 9.09375 0.265625 C 7.457031 0.265625 6.035156 -0.0546875 4.828125 -0.703125 C 3.617188 -1.359375 2.691406 -2.242188 2.046875 -3.359375 C 1.410156 -4.484375 1.09375 -5.710938 1.09375 -7.046875 C 1.09375 -8.484375 1.457031 -9.738281 2.1875 -10.8125 C 2.914062 -11.894531 3.914062 -12.726562 5.1875 -13.3125 C 6.457031 -13.894531 7.878906 -14.1875 9.453125 -14.1875 C 10.242188 -14.1875 10.988281 -14.109375 11.6875 -13.953125 C 12.382812 -13.804688 12.960938 -13.59375 13.421875 -13.3125 C 13.535156 -13.25 13.597656 -13.195312 13.609375 -13.15625 C 13.628906 -13.113281 13.648438 -13.003906 13.671875 -12.828125 L 13.9375 -10.1875 C 13.9375 -10.144531 13.894531 -10.113281 13.8125 -10.09375 C 13.726562 -10.082031 13.679688 -10.109375 13.671875 -10.171875 C 12.984375 -12.609375 11.4375 -13.828125 9.03125 -13.828125 C 7.851562 -13.828125 6.789062 -13.5625 5.84375 -13.03125 C 4.90625 -12.5 4.164062 -11.742188 3.625 -10.765625 C 3.082031 -9.796875 2.8125 -8.664062 2.8125 -7.375 C 2.8125 -6.113281 3.070312 -4.925781 3.59375 -3.8125 C 4.113281 -2.695312 4.890625 -1.789062 5.921875 -1.09375 C 6.960938 -0.40625 8.222656 -0.0625 9.703125 -0.0625 C 10.753906 -0.0625 11.492188 -0.265625 11.921875 -0.671875 C 12.359375 -1.085938 12.578125 -1.789062 12.578125 -2.78125 C 12.578125 -3.5625 12.523438 -4.101562 12.421875 -4.40625 C 12.328125 -4.707031 12.113281 -4.910156 11.78125 -5.015625 C 11.445312 -5.117188 10.863281 -5.171875 10.03125 -5.171875 C 9.945312 -5.171875 9.90625 -5.226562 9.90625 -5.34375 C 9.90625 -5.394531 9.914062 -5.4375 9.9375 -5.46875 C 9.957031 -5.507812 9.984375 -5.53125 10.015625 -5.53125 C 11.171875 -5.457031 12.109375 -5.421875 12.828125 -5.421875 C 13.503906 -5.421875 14.238281 -5.441406 15.03125 -5.484375 C 15.0625 -5.484375 15.085938 -5.460938 15.109375 -5.421875 C 15.128906 -5.390625 15.140625 -5.359375 15.140625 -5.328125 C 15.140625 -5.222656 15.101562 -5.171875 15.03125 -5.171875 C 14.65625 -5.179688 14.394531 -5.128906 14.25 -5.015625 C 14.113281 -4.910156 14.019531 -4.691406 13.96875 -4.359375 C 13.925781 -4.023438 13.90625 -3.425781 13.90625 -2.5625 C 13.90625 -1.894531 13.929688 -1.421875 13.984375 -1.140625 C 14.035156 -0.859375 14.0625 -0.679688 14.0625 -0.609375 C 14.0625 -0.515625 14.046875 -0.453125 14.015625 -0.421875 C 13.992188 -0.390625 13.929688 -0.359375 13.828125 -0.328125 C 11.984375 0.0664062 10.40625 0.265625 9.09375 0.265625 Z M 9.09375 0.265625 "/></g></g></g><g fill="#000000" fill-opacity="1"><g transform="translate(197.890327, 224.18096)"><g/></g></g><g fill="#000000" fill-opacity="1"><g transform="translate(206.049142, 224.18096)"><g><path d="M 3.234375 -11.328125 C 3.234375 -10.742188 3.375 -10.234375 3.65625 -9.796875 C 3.9375 -9.367188 4.28125 -9.007812 4.6875 -8.71875 C 5.101562 -8.4375 5.664062 -8.078125 6.375 -7.640625 C 7.164062 -7.171875 7.769531 -6.78125 8.1875 -6.46875 C 8.613281 -6.15625 8.976562 -5.753906 9.28125 -5.265625 C 9.59375 -4.785156 9.75 -4.210938 9.75 -3.546875 C 9.75 -2.828125 9.566406 -2.175781 9.203125 -1.59375 C 8.847656 -1.019531 8.320312 -0.566406 7.625 -0.234375 C 6.9375 0.0976562 6.113281 0.265625 5.15625 0.265625 C 4.007812 0.265625 2.957031 0.00390625 2 -0.515625 C 1.925781 -0.554688 1.878906 -0.609375 1.859375 -0.671875 C 1.835938 -0.734375 1.820312 -0.820312 1.8125 -0.9375 L 1.515625 -3.96875 C 1.503906 -4.03125 1.535156 -4.066406 1.609375 -4.078125 C 1.691406 -4.097656 1.742188 -4.078125 1.765625 -4.015625 C 2.003906 -2.941406 2.445312 -2.019531 3.09375 -1.25 C 3.738281 -0.476562 4.59375 -0.09375 5.65625 -0.09375 C 6.40625 -0.09375 7.035156 -0.296875 7.546875 -0.703125 C 8.054688 -1.109375 8.3125 -1.757812 8.3125 -2.65625 C 8.3125 -3.320312 8.160156 -3.898438 7.859375 -4.390625 C 7.566406 -4.878906 7.207031 -5.285156 6.78125 -5.609375 C 6.363281 -5.929688 5.789062 -6.304688 5.0625 -6.734375 C 4.34375 -7.160156 3.78125 -7.53125 3.375 -7.84375 C 2.96875 -8.15625 2.625 -8.550781 2.34375 -9.03125 C 2.0625 -9.507812 1.921875 -10.066406 1.921875 -10.703125 C 1.921875 -11.441406 2.113281 -12.078125 2.5 -12.609375 C 2.894531 -13.140625 3.410156 -13.535156 4.046875 -13.796875 C 4.679688 -14.054688 5.351562 -14.1875 6.0625 -14.1875 C 6.9375 -14.1875 7.804688 -14.003906 8.671875 -13.640625 C 8.898438 -13.566406 9.015625 -13.441406 9.015625 -13.265625 L 9.15625 -10.703125 C 9.15625 -10.640625 9.117188 -10.609375 9.046875 -10.609375 C 8.972656 -10.609375 8.929688 -10.640625 8.921875 -10.703125 C 8.796875 -11.472656 8.472656 -12.1875 7.953125 -12.84375 C 7.429688 -13.507812 6.679688 -13.84375 5.703125 -13.84375 C 4.867188 -13.84375 4.25 -13.597656 3.84375 -13.109375 C 3.4375 -12.628906 3.234375 -12.035156 3.234375 -11.328125 Z M 3.234375 -11.328125 "/></g></g></g><g fill="#000000" fill-opacity="1"><g transform="translate(219.936488, 224.18096)"><g><path d="M 10.59375 -3.328125 C 10.59375 -3.347656 10.625 -3.359375 10.6875 -3.359375 C 10.726562 -3.359375 10.765625 -3.351562 10.796875 -3.34375 C 10.835938 -3.332031 10.859375 -3.3125 10.859375 -3.28125 C 10.722656 -2.34375 10.65625 -1.359375 10.65625 -0.328125 C 10.65625 -0.210938 10.628906 -0.128906 10.578125 -0.078125 C 10.523438 -0.0234375 10.429688 0 10.296875 0 L 0.953125 0 C 0.929688 0 0.921875 -0.0390625 0.921875 -0.125 C 0.921875 -0.21875 0.929688 -0.265625 0.953125 -0.265625 C 1.523438 -0.265625 1.941406 -0.300781 2.203125 -0.375 C 2.460938 -0.445312 2.640625 -0.59375 2.734375 -0.8125 C 2.828125 -1.03125 2.875 -1.363281 2.875 -1.8125 L 2.875 -12.125 C 2.875 -12.570312 2.828125 -12.898438 2.734375 -13.109375 C 2.640625 -13.316406 2.460938 -13.460938 2.203125 -13.546875 C 1.941406 -13.628906 1.523438 -13.671875 0.953125 -13.671875 C 0.929688 -13.671875 0.921875 -13.710938 0.921875 -13.796875 C 0.921875 -13.890625 0.929688 -13.9375 0.953125 -13.9375 L 9.921875 -13.9375 C 10.054688 -13.9375 10.125 -13.867188 10.125 -13.734375 L 10.171875 -11 C 10.171875 -10.945312 10.128906 -10.914062 10.046875 -10.90625 C 9.972656 -10.90625 9.929688 -10.925781 9.921875 -10.96875 C 9.878906 -11.757812 9.640625 -12.375 9.203125 -12.8125 C 8.773438 -13.25 8.203125 -13.46875 7.484375 -13.46875 L 6.125 -13.46875 C 5.601562 -13.46875 5.21875 -13.425781 4.96875 -13.34375 C 4.726562 -13.257812 4.5625 -13.117188 4.46875 -12.921875 C 4.375 -12.722656 4.328125 -12.421875 4.328125 -12.015625 L 4.328125 -7.484375 L 7.046875 -7.484375 C 7.753906 -7.484375 8.257812 -7.601562 8.5625 -7.84375 C 8.875 -8.082031 9.03125 -8.484375 9.03125 -9.046875 C 9.03125 -9.078125 9.070312 -9.09375 9.15625 -9.09375 C 9.25 -9.09375 9.296875 -9.078125 9.296875 -9.046875 L 9.28125 -7.25 C 9.28125 -6.8125 9.285156 -6.484375 9.296875 -6.265625 L 9.3125 -5.1875 C 9.3125 -5.164062 9.265625 -5.15625 9.171875 -5.15625 C 9.085938 -5.15625 9.046875 -5.164062 9.046875 -5.1875 C 9.046875 -5.84375 8.882812 -6.3125 8.5625 -6.59375 C 8.25 -6.882812 7.722656 -7.03125 6.984375 -7.03125 L 4.328125 -7.03125 L 4.328125 -1.890625 C 4.328125 -1.472656 4.367188 -1.164062 4.453125 -0.96875 C 4.546875 -0.78125 4.710938 -0.648438 4.953125 -0.578125 C 5.191406 -0.503906 5.5625 -0.46875 6.0625 -0.46875 L 7.84375 -0.46875 C 8.5625 -0.46875 9.15625 -0.71875 9.625 -1.21875 C 10.101562 -1.726562 10.425781 -2.429688 10.59375 -3.328125 Z M 10.59375 -3.328125 "/></g></g></g><g fill="#000000" fill-opacity="1"><g transform="translate(234.849179, 224.18096)"><g><path d="M 15.234375 -0.265625 C 15.253906 -0.265625 15.265625 -0.21875 15.265625 -0.125 C 15.265625 -0.0390625 15.253906 0 15.234375 0 L 12.359375 0 C 11.984375 0 11.28125 -0.613281 10.25 -1.84375 C 9.226562 -3.082031 8.007812 -4.78125 6.59375 -6.9375 C 6.195312 -6.84375 5.78125 -6.796875 5.34375 -6.796875 C 5.257812 -6.796875 4.925781 -6.820312 4.34375 -6.875 L 4.34375 -1.8125 C 4.34375 -1.34375 4.382812 -1.003906 4.46875 -0.796875 C 4.5625 -0.585938 4.738281 -0.445312 5 -0.375 C 5.257812 -0.300781 5.675781 -0.265625 6.25 -0.265625 C 6.289062 -0.265625 6.3125 -0.21875 6.3125 -0.125 C 6.3125 -0.0390625 6.289062 0 6.25 0 C 5.78125 0 5.414062 -0.00390625 5.15625 -0.015625 L 3.609375 -0.046875 L 2.09375 -0.015625 C 1.820312 -0.00390625 1.441406 0 0.953125 0 C 0.929688 0 0.921875 -0.0390625 0.921875 -0.125 C 0.921875 -0.21875 0.929688 -0.265625 0.953125 -0.265625 C 1.523438 -0.265625 1.941406 -0.300781 2.203125 -0.375 C 2.472656 -0.445312 2.65625 -0.59375 2.75 -0.8125 C 2.851562 -1.03125 2.90625 -1.363281 2.90625 -1.8125 L 2.90625 -12.125 C 2.90625 -12.570312 2.859375 -12.898438 2.765625 -13.109375 C 2.671875 -13.316406 2.492188 -13.460938 2.234375 -13.546875 C 1.972656 -13.628906 1.5625 -13.671875 1 -13.671875 C 0.957031 -13.671875 0.9375 -13.710938 0.9375 -13.796875 C 0.9375 -13.890625 0.957031 -13.9375 1 -13.9375 L 2.09375 -13.90625 C 2.71875 -13.882812 3.222656 -13.875 3.609375 -13.875 C 3.941406 -13.875 4.25 -13.878906 4.53125 -13.890625 C 4.8125 -13.898438 5.046875 -13.914062 5.234375 -13.9375 C 5.785156 -13.976562 6.285156 -14 6.734375 -14 C 7.910156 -14 8.816406 -13.726562 9.453125 -13.1875 C 10.085938 -12.65625 10.40625 -11.945312 10.40625 -11.0625 C 10.40625 -10.257812 10.171875 -9.535156 9.703125 -8.890625 C 9.242188 -8.242188 8.625 -7.734375 7.84375 -7.359375 C 9.09375 -5.554688 10.144531 -4.144531 11 -3.125 C 11.851562 -2.113281 12.609375 -1.382812 13.265625 -0.9375 C 13.929688 -0.488281 14.585938 -0.265625 15.234375 -0.265625 Z M 4.34375 -7.40625 C 4.71875 -7.34375 5.15625 -7.3125 5.65625 -7.3125 C 6.820312 -7.3125 7.648438 -7.5625 8.140625 -8.0625 C 8.640625 -8.570312 8.890625 -9.351562 8.890625 -10.40625 C 8.890625 -11.570312 8.632812 -12.40625 8.125 -12.90625 C 7.613281 -13.414062 6.867188 -13.671875 5.890625 -13.671875 C 5.304688 -13.671875 4.898438 -13.566406 4.671875 -13.359375 C 4.453125 -13.148438 4.34375 -12.722656 4.34375 -12.078125 Z M 4.34375 -7.40625 "/></g></g></g><g fill="#000000" fill-opacity="1"><g transform="translate(252.793305, 224.18096)"><g><path d="M 14.921875 -13.9375 C 14.960938 -13.9375 14.984375 -13.890625 14.984375 -13.796875 C 14.984375 -13.710938 14.960938 -13.671875 14.921875 -13.671875 C 14.410156 -13.671875 13.96875 -13.535156 13.59375 -13.265625 C 13.226562 -12.992188 12.921875 -12.539062 12.671875 -11.90625 L 7.921875 -0.015625 C 7.898438 0.0351562 7.816406 0.0625 7.671875 0.0625 C 7.546875 0.0625 7.460938 0.0351562 7.421875 -0.015625 L 1.875 -12.078125 C 1.625 -12.660156 1.351562 -13.070312 1.0625 -13.3125 C 0.78125 -13.550781 0.421875 -13.671875 -0.015625 -13.671875 C -0.0664062 -13.671875 -0.09375 -13.710938 -0.09375 -13.796875 C -0.09375 -13.890625 -0.0664062 -13.9375 -0.015625 -13.9375 L 0.828125 -13.90625 C 1.242188 -13.882812 1.578125 -13.875 1.828125 -13.875 C 2.421875 -13.875 3.0625 -13.882812 3.75 -13.90625 L 4.65625 -13.9375 C 4.707031 -13.9375 4.734375 -13.890625 4.734375 -13.796875 C 4.734375 -13.710938 4.707031 -13.671875 4.65625 -13.671875 C 3.738281 -13.671875 3.28125 -13.410156 3.28125 -12.890625 C 3.28125 -12.710938 3.347656 -12.472656 3.484375 -12.171875 L 8.140625 -1.96875 L 12.15625 -12.015625 C 12.269531 -12.328125 12.328125 -12.570312 12.328125 -12.75 C 12.328125 -13.0625 12.1875 -13.289062 11.90625 -13.4375 C 11.625 -13.59375 11.1875 -13.671875 10.59375 -13.671875 C 10.550781 -13.671875 10.53125 -13.710938 10.53125 -13.796875 C 10.53125 -13.890625 10.550781 -13.9375 10.59375 -13.9375 L 11.546875 -13.90625 C 12.054688 -13.882812 12.519531 -13.875 12.9375 -13.875 C 13.25 -13.875 13.597656 -13.882812 13.984375 -13.90625 Z M 14.921875 -13.9375 "/></g></g></g><g fill="#000000" fill-opacity="1"><g transform="translate(270.581405, 224.18096)"><g><path d="M 4.4375 -1.8125 C 4.4375 -1.363281 4.476562 -1.03125 4.5625 -0.8125 C 4.65625 -0.59375 4.832031 -0.445312 5.09375 -0.375 C 5.351562 -0.300781 5.765625 -0.265625 6.328125 -0.265625 C 6.378906 -0.265625 6.40625 -0.21875 6.40625 -0.125 C 6.40625 -0.0390625 6.378906 0 6.328125 0 C 5.878906 0 5.523438 -0.00390625 5.265625 -0.015625 L 3.671875 -0.046875 L 2.140625 -0.015625 C 1.867188 -0.00390625 1.503906 0 1.046875 0 C 1.003906 0 0.984375 -0.0390625 0.984375 -0.125 C 0.984375 -0.21875 1.003906 -0.265625 1.046875 -0.265625 C 1.609375 -0.265625 2.019531 -0.300781 2.28125 -0.375 C 2.539062 -0.445312 2.71875 -0.59375 2.8125 -0.8125 C 2.914062 -1.03125 2.96875 -1.363281 2.96875 -1.8125 L 2.96875 -12.125 C 2.96875 -12.570312 2.914062 -12.898438 2.8125 -13.109375 C 2.71875 -13.316406 2.539062 -13.460938 2.28125 -13.546875 C 2.019531 -13.628906 1.609375 -13.671875 1.046875 -13.671875 C 1.003906 -13.671875 0.984375 -13.710938 0.984375 -13.796875 C 0.984375 -13.890625 1.003906 -13.9375 1.046875 -13.9375 L 2.140625 -13.90625 C 2.765625 -13.882812 3.273438 -13.875 3.671875 -13.875 C 4.117188 -13.875 4.65625 -13.882812 5.28125 -13.90625 L 6.328125 -13.9375 C 6.378906 -13.9375 6.40625 -13.890625 6.40625 -13.796875 C 6.40625 -13.710938 6.378906 -13.671875 6.328125 -13.671875 C 5.773438 -13.671875 5.367188 -13.625 5.109375 -13.53125 C 4.859375 -13.445312 4.679688 -13.296875 4.578125 -13.078125 C 4.484375 -12.859375 4.4375 -12.523438 4.4375 -12.078125 Z M 4.4375 -1.8125 "/></g></g></g><g fill="#000000" fill-opacity="1"><g transform="translate(280.924643, 224.18096)"><g><path d="M 9.15625 -14.1875 C 10.09375 -14.1875 10.878906 -14.117188 11.515625 -13.984375 C 12.160156 -13.847656 12.800781 -13.613281 13.4375 -13.28125 C 13.539062 -13.226562 13.597656 -13.175781 13.609375 -13.125 C 13.628906 -13.082031 13.65625 -12.972656 13.6875 -12.796875 L 13.953125 -10.140625 C 13.953125 -10.097656 13.910156 -10.070312 13.828125 -10.0625 C 13.753906 -10.0625 13.707031 -10.082031 13.6875 -10.125 C 13.007812 -12.601562 11.476562 -13.84375 9.09375 -13.84375 C 7.84375 -13.84375 6.742188 -13.566406 5.796875 -13.015625 C 4.847656 -12.472656 4.113281 -11.691406 3.59375 -10.671875 C 3.070312 -9.648438 2.8125 -8.460938 2.8125 -7.109375 C 2.8125 -5.816406 3.097656 -4.628906 3.671875 -3.546875 C 4.242188 -2.472656 5.015625 -1.625 5.984375 -1 C 6.960938 -0.375 8.019531 -0.0625 9.15625 -0.0625 C 10.382812 -0.0625 11.375 -0.359375 12.125 -0.953125 C 12.882812 -1.546875 13.46875 -2.453125 13.875 -3.671875 C 13.875 -3.703125 13.910156 -3.71875 13.984375 -3.71875 C 14.085938 -3.71875 14.140625 -3.695312 14.140625 -3.65625 L 13.90625 -1.203125 C 13.894531 -1.023438 13.875 -0.910156 13.84375 -0.859375 C 13.8125 -0.816406 13.753906 -0.769531 13.671875 -0.71875 C 12.898438 -0.34375 12.175781 -0.0820312 11.5 0.0625 C 10.820312 0.21875 10.039062 0.296875 9.15625 0.296875 C 7.601562 0.296875 6.210938 -0.0078125 4.984375 -0.625 C 3.753906 -1.25 2.796875 -2.117188 2.109375 -3.234375 C 1.429688 -4.347656 1.09375 -5.625 1.09375 -7.0625 C 1.09375 -8.457031 1.441406 -9.691406 2.140625 -10.765625 C 2.835938 -11.847656 3.800781 -12.6875 5.03125 -13.28125 C 6.257812 -13.882812 7.632812 -14.1875 9.15625 -14.1875 Z M 9.15625 -14.1875 "/></g></g></g><g fill="#000000" fill-opacity="1"><g transform="translate(299.158555, 224.18096)"><g><path d="M 10.59375 -3.328125 C 10.59375 -3.347656 10.625 -3.359375 10.6875 -3.359375 C 10.726562 -3.359375 10.765625 -3.351562 10.796875 -3.34375 C 10.835938 -3.332031 10.859375 -3.3125 10.859375 -3.28125 C 10.722656 -2.34375 10.65625 -1.359375 10.65625 -0.328125 C 10.65625 -0.210938 10.628906 -0.128906 10.578125 -0.078125 C 10.523438 -0.0234375 10.429688 0 10.296875 0 L 0.953125 0 C 0.929688 0 0.921875 -0.0390625 0.921875 -0.125 C 0.921875 -0.21875 0.929688 -0.265625 0.953125 -0.265625 C 1.523438 -0.265625 1.941406 -0.300781 2.203125 -0.375 C 2.460938 -0.445312 2.640625 -0.59375 2.734375 -0.8125 C 2.828125 -1.03125 2.875 -1.363281 2.875 -1.8125 L 2.875 -12.125 C 2.875 -12.570312 2.828125 -12.898438 2.734375 -13.109375 C 2.640625 -13.316406 2.460938 -13.460938 2.203125 -13.546875 C 1.941406 -13.628906 1.523438 -13.671875 0.953125 -13.671875 C 0.929688 -13.671875 0.921875 -13.710938 0.921875 -13.796875 C 0.921875 -13.890625 0.929688 -13.9375 0.953125 -13.9375 L 9.921875 -13.9375 C 10.054688 -13.9375 10.125 -13.867188 10.125 -13.734375 L 10.171875 -11 C 10.171875 -10.945312 10.128906 -10.914062 10.046875 -10.90625 C 9.972656 -10.90625 9.929688 -10.925781 9.921875 -10.96875 C 9.878906 -11.757812 9.640625 -12.375 9.203125 -12.8125 C 8.773438 -13.25 8.203125 -13.46875 7.484375 -13.46875 L 6.125 -13.46875 C 5.601562 -13.46875 5.21875 -13.425781 4.96875 -13.34375 C 4.726562 -13.257812 4.5625 -13.117188 4.46875 -12.921875 C 4.375 -12.722656 4.328125 -12.421875 4.328125 -12.015625 L 4.328125 -7.484375 L 7.046875 -7.484375 C 7.753906 -7.484375 8.257812 -7.601562 8.5625 -7.84375 C 8.875 -8.082031 9.03125 -8.484375 9.03125 -9.046875 C 9.03125 -9.078125 9.070312 -9.09375 9.15625 -9.09375 C 9.25 -9.09375 9.296875 -9.078125 9.296875 -9.046875 L 9.28125 -7.25 C 9.28125 -6.8125 9.285156 -6.484375 9.296875 -6.265625 L 9.3125 -5.1875 C 9.3125 -5.164062 9.265625 -5.15625 9.171875 -5.15625 C 9.085938 -5.15625 9.046875 -5.164062 9.046875 -5.1875 C 9.046875 -5.84375 8.882812 -6.3125 8.5625 -6.59375 C 8.25 -6.882812 7.722656 -7.03125 6.984375 -7.03125 L 4.328125 -7.03125 L 4.328125 -1.890625 C 4.328125 -1.472656 4.367188 -1.164062 4.453125 -0.96875 C 4.546875 -0.78125 4.710938 -0.648438 4.953125 -0.578125 C 5.191406 -0.503906 5.5625 -0.46875 6.0625 -0.46875 L 7.84375 -0.46875 C 8.5625 -0.46875 9.15625 -0.71875 9.625 -1.21875 C 10.101562 -1.726562 10.425781 -2.429688 10.59375 -3.328125 Z M 10.59375 -3.328125 "/></g></g></g><g fill="#000000" fill-opacity="1"><g transform="translate(155.664667, 249.285664)"><g><path d="M 6.5 0 L 0.59375 0 L 0.609375 -0.140625 C 1.003906 -0.140625 1.289062 -0.210938 1.46875 -0.359375 C 1.664062 -0.523438 1.765625 -1.289062 1.765625 -2.65625 L 1.765625 -5.5625 C 1.765625 -6.394531 1.738281 -6.96875 1.6875 -7.28125 C 1.632812 -7.59375 1.5625 -7.785156 1.46875 -7.859375 C 1.289062 -8.003906 1.003906 -8.078125 0.609375 -8.078125 L 0.59375 -8.21875 L 6.0625 -8.21875 L 6.0625 -6.53125 L 5.921875 -6.546875 C 5.921875 -7.066406 5.644531 -7.425781 5.09375 -7.625 C 4.539062 -7.832031 3.695312 -7.9375 2.5625 -7.9375 L 2.5625 -4.25 C 3.320312 -4.25 3.863281 -4.285156 4.1875 -4.359375 C 4.519531 -4.441406 4.734375 -4.5625 4.828125 -4.71875 C 4.921875 -4.882812 4.96875 -5.15625 4.96875 -5.53125 L 5.09375 -5.546875 L 5.09375 -2.703125 L 4.96875 -2.71875 C 4.96875 -3.101562 4.921875 -3.375 4.828125 -3.53125 C 4.734375 -3.6875 4.519531 -3.800781 4.1875 -3.875 C 3.863281 -3.945312 3.320312 -3.984375 2.5625 -3.984375 L 2.5625 -2.46875 C 2.5625 -1.644531 2.59375 -1.09375 2.65625 -0.8125 C 2.71875 -0.539062 2.847656 -0.359375 3.046875 -0.265625 C 5.253906 -0.265625 6.359375 -0.734375 6.359375 -1.671875 L 6.5 -1.703125 Z M 6.5 0 "/></g></g></g><g fill="#000000" fill-opacity="1"><g transform="translate(164.438945, 249.285664)"><g><path d="M 0.96875 -2.484375 C 0.96875 -1.722656 1.148438 -1.144531 1.515625 -0.75 C 1.890625 -0.351562 2.347656 -0.15625 2.890625 -0.15625 C 3.429688 -0.15625 3.875 -0.285156 4.21875 -0.546875 C 4.5625 -0.804688 4.734375 -1.21875 4.734375 -1.78125 C 4.734375 -2.289062 4.460938 -2.742188 3.921875 -3.140625 C 3.679688 -3.316406 3.414062 -3.488281 3.125 -3.65625 C 2.84375 -3.820312 2.554688 -3.992188 2.265625 -4.171875 C 1.972656 -4.359375 1.710938 -4.546875 1.484375 -4.734375 C 0.941406 -5.191406 0.671875 -5.722656 0.671875 -6.328125 C 0.671875 -6.929688 0.890625 -7.410156 1.328125 -7.765625 C 1.773438 -8.128906 2.363281 -8.3125 3.09375 -8.3125 C 3.820312 -8.3125 4.5 -8.15625 5.125 -7.84375 C 5.125 -7.445312 5.066406 -6.769531 4.953125 -5.8125 L 4.78125 -5.875 C 4.78125 -6.601562 4.597656 -7.148438 4.234375 -7.515625 C 3.878906 -7.878906 3.46875 -8.0625 3 -8.0625 C 2.53125 -8.0625 2.15625 -7.925781 1.875 -7.65625 C 1.59375 -7.382812 1.453125 -7.066406 1.453125 -6.703125 C 1.453125 -6.335938 1.550781 -6.019531 1.75 -5.75 C 1.945312 -5.488281 2.195312 -5.269531 2.5 -5.09375 C 2.800781 -4.925781 3.128906 -4.738281 3.484375 -4.53125 C 3.835938 -4.320312 4.164062 -4.117188 4.46875 -3.921875 C 4.769531 -3.722656 5.019531 -3.460938 5.21875 -3.140625 C 5.414062 -2.816406 5.515625 -2.457031 5.515625 -2.0625 C 5.515625 -1.34375 5.257812 -0.796875 4.75 -0.421875 C 4.238281 -0.0546875 3.617188 0.125 2.890625 0.125 C 2.492188 0.125 2.085938 0.0625 1.671875 -0.0625 C 1.253906 -0.195312 0.910156 -0.382812 0.640625 -0.625 C 0.640625 -1.125 0.6875 -1.753906 0.78125 -2.515625 Z M 0.96875 -2.484375 "/></g></g></g><g fill="#000000" fill-opacity="1"><g transform="translate(172.145849, 249.285664)"><g><path d="M 0.171875 -8.21875 L 6.9375 -8.21875 L 6.9375 -6.53125 L 6.8125 -6.546875 C 6.8125 -7.503906 5.867188 -7.984375 3.984375 -7.984375 L 3.984375 -2.65625 C 3.984375 -1.5 4.046875 -0.796875 4.171875 -0.546875 C 4.222656 -0.453125 4.304688 -0.367188 4.421875 -0.296875 C 4.535156 -0.222656 4.660156 -0.175781 4.796875 -0.15625 C 4.929688 -0.144531 5.113281 -0.140625 5.34375 -0.140625 L 5.375 0 L 1.765625 0 L 1.78125 -0.140625 C 2.019531 -0.140625 2.207031 -0.144531 2.34375 -0.15625 C 2.476562 -0.164062 2.601562 -0.207031 2.71875 -0.28125 C 2.832031 -0.363281 2.914062 -0.445312 2.96875 -0.53125 C 3.019531 -0.625 3.0625 -0.78125 3.09375 -1 C 3.132812 -1.257812 3.15625 -1.8125 3.15625 -2.65625 L 3.15625 -7.984375 C 1.257812 -7.984375 0.3125 -7.503906 0.3125 -6.546875 L 0.171875 -6.53125 Z M 0.171875 -8.21875 "/></g></g></g><g fill="#000000" fill-opacity="1"><g transform="translate(180.80283, 249.285664)"><g><path d="M 0.40625 -0.5 C 0.40625 -0.675781 0.460938 -0.820312 0.578125 -0.9375 C 0.703125 -1.0625 0.847656 -1.125 1.015625 -1.125 C 1.191406 -1.125 1.335938 -1.0625 1.453125 -0.9375 C 1.566406 -0.820312 1.625 -0.675781 1.625 -0.5 C 1.625 -0.320312 1.5625 -0.171875 1.4375 -0.046875 C 1.320312 0.0664062 1.179688 0.125 1.015625 0.125 C 0.847656 0.125 0.703125 0.0664062 0.578125 -0.046875 C 0.460938 -0.171875 0.40625 -0.320312 0.40625 -0.5 Z M 0.40625 -0.5 "/></g></g></g><g fill="#000000" fill-opacity="1"><g transform="translate(184.381003, 249.285664)"><g/></g></g><g fill="#000000" fill-opacity="1"><g transform="translate(188.862335, 249.285664)"><g><path d="M 5.4375 -1.671875 L 5.578125 -1.671875 L 5.578125 0 L 0.875 0 L 0.875 -0.15625 C 1.988281 -1.257812 2.875 -2.316406 3.53125 -3.328125 C 4.1875 -4.347656 4.515625 -5.195312 4.515625 -5.875 C 4.515625 -6.3125 4.398438 -6.664062 4.171875 -6.9375 C 3.953125 -7.21875 3.628906 -7.359375 3.203125 -7.359375 C 2.929688 -7.359375 2.695312 -7.296875 2.5 -7.171875 C 2.3125 -7.046875 2.171875 -6.90625 2.078125 -6.75 C 1.984375 -6.601562 1.878906 -6.46875 1.765625 -6.34375 C 1.648438 -6.21875 1.535156 -6.15625 1.421875 -6.15625 C 1.304688 -6.15625 1.207031 -6.191406 1.125 -6.265625 C 1.050781 -6.347656 1.015625 -6.441406 1.015625 -6.546875 C 1.015625 -6.847656 1.226562 -7.109375 1.65625 -7.328125 C 2.09375 -7.546875 2.613281 -7.65625 3.21875 -7.65625 C 3.820312 -7.65625 4.332031 -7.507812 4.75 -7.21875 C 5.175781 -6.9375 5.390625 -6.472656 5.390625 -5.828125 C 5.390625 -5.097656 5.015625 -4.265625 4.265625 -3.328125 C 3.867188 -2.835938 3.488281 -2.398438 3.125 -2.015625 C 2.769531 -1.628906 2.269531 -1.113281 1.625 -0.46875 C 2.894531 -0.46875 3.847656 -0.550781 4.484375 -0.71875 C 5.117188 -0.882812 5.4375 -1.203125 5.4375 -1.671875 Z M 5.4375 -1.671875 "/></g></g></g><g fill="#000000" fill-opacity="1"><g transform="translate(196.862475, 249.285664)"><g><path d="M 0.546875 -3.75 C 0.546875 -4.96875 0.796875 -5.921875 1.296875 -6.609375 C 1.796875 -7.304688 2.441406 -7.65625 3.234375 -7.65625 C 4.023438 -7.65625 4.671875 -7.304688 5.171875 -6.609375 C 5.671875 -5.921875 5.921875 -4.96875 5.921875 -3.75 C 5.921875 -2.53125 5.671875 -1.578125 5.171875 -0.890625 C 4.679688 -0.210938 4.035156 0.125 3.234375 0.125 C 2.441406 0.125 1.796875 -0.210938 1.296875 -0.890625 C 0.796875 -1.578125 0.546875 -2.53125 0.546875 -3.75 Z M 1.390625 -3.75 C 1.390625 -2.707031 1.566406 -1.859375 1.921875 -1.203125 C 2.273438 -0.546875 2.710938 -0.21875 3.234375 -0.21875 C 3.765625 -0.21875 4.203125 -0.539062 4.546875 -1.1875 C 4.890625 -1.84375 5.0625 -2.695312 5.0625 -3.75 C 5.0625 -4.800781 4.890625 -5.664062 4.546875 -6.34375 C 4.203125 -7.019531 3.765625 -7.359375 3.234375 -7.359375 C 2.710938 -7.359375 2.273438 -7.019531 1.921875 -6.34375 C 1.566406 -5.664062 1.390625 -4.800781 1.390625 -3.75 Z M 1.390625 -3.75 "/></g></g></g><g fill="#000000" fill-opacity="1"><g transform="translate(204.862616, 249.285664)"><g><path d="M 3.890625 -2.65625 C 3.890625 -1.5625 3.9375 -0.910156 4.03125 -0.703125 C 4.082031 -0.597656 4.132812 -0.5 4.1875 -0.40625 C 4.25 -0.320312 4.335938 -0.265625 4.453125 -0.234375 C 4.671875 -0.171875 4.945312 -0.140625 5.28125 -0.140625 L 5.296875 0 L 1.671875 0 L 1.6875 -0.140625 C 1.925781 -0.140625 2.113281 -0.144531 2.25 -0.15625 C 2.382812 -0.175781 2.507812 -0.222656 2.625 -0.296875 C 2.738281 -0.367188 2.820312 -0.445312 2.875 -0.53125 C 2.925781 -0.625 2.96875 -0.78125 3 -1 C 3.050781 -1.3125 3.078125 -1.863281 3.078125 -2.65625 L 3.078125 -5.75 C 3.078125 -6.28125 2.90625 -6.546875 2.5625 -6.546875 C 2.3125 -6.546875 1.867188 -6.40625 1.234375 -6.125 L 1.140625 -6.34375 C 2.492188 -6.957031 3.367188 -7.398438 3.765625 -7.671875 L 3.890625 -7.609375 Z M 3.890625 -2.65625 "/></g></g></g><g fill="#000000" fill-opacity="1"><g transform="translate(212.862757, 249.285664)"><g><path d="M 5.4375 -1.671875 L 5.578125 -1.671875 L 5.578125 0 L 0.875 0 L 0.875 -0.15625 C 1.988281 -1.257812 2.875 -2.316406 3.53125 -3.328125 C 4.1875 -4.347656 4.515625 -5.195312 4.515625 -5.875 C 4.515625 -6.3125 4.398438 -6.664062 4.171875 -6.9375 C 3.953125 -7.21875 3.628906 -7.359375 3.203125 -7.359375 C 2.929688 -7.359375 2.695312 -7.296875 2.5 -7.171875 C 2.3125 -7.046875 2.171875 -6.90625 2.078125 -6.75 C 1.984375 -6.601562 1.878906 -6.46875 1.765625 -6.34375 C 1.648438 -6.21875 1.535156 -6.15625 1.421875 -6.15625 C 1.304688 -6.15625 1.207031 -6.191406 1.125 -6.265625 C 1.050781 -6.347656 1.015625 -6.441406 1.015625 -6.546875 C 1.015625 -6.847656 1.226562 -7.109375 1.65625 -7.328125 C 2.09375 -7.546875 2.613281 -7.65625 3.21875 -7.65625 C 3.820312 -7.65625 4.332031 -7.507812 4.75 -7.21875 C 5.175781 -6.9375 5.390625 -6.472656 5.390625 -5.828125 C 5.390625 -5.097656 5.015625 -4.265625 4.265625 -3.328125 C 3.867188 -2.835938 3.488281 -2.398438 3.125 -2.015625 C 2.769531 -1.628906 2.269531 -1.113281 1.625 -0.46875 C 2.894531 -0.46875 3.847656 -0.550781 4.484375 -0.71875 C 5.117188 -0.882812 5.4375 -1.203125 5.4375 -1.671875 Z M 5.4375 -1.671875 "/></g></g></g></svg>